<svg width="68" height="37" viewBox="0 0 68 37" fill="none" xmlns="http://www.w3.org/2000/svg">
<path d="M28.0034 1.6863L17.4061 22.2092L17.3286 36.517L10.5667 36.4804L10.6442 22.1726L0.269819 1.53606L7.66871 1.57614L14.1094 15.6742L20.6045 1.64622L28.0034 1.6863Z" fill="white"/>
<path d="M20.9766 36.2354L21.0883 25.848C21.1304 21.9283 21.9122 19.0945 23.4338 17.3468C24.9876 15.632 27.4795 14.7931 30.9093 14.8299L56.0938 15.1006L56.0206 21.9112L30.8361 21.6406C29.4641 21.6258 28.5135 21.9259 27.9842 22.541C27.4549 23.156 27.1815 24.2801 27.1639 25.9133L27.0523 36.3007L20.9766 36.2354Z" fill="#622363"/>
<path d="M33.9361 6.13V5.35C33.9361 4.61 33.8261 4.045 33.6061 3.655C33.3961 3.265 32.9511 3.07 32.2711 3.07C31.1711 3.07 30.6211 3.81 30.6211 5.29V6.07C30.6211 7.66 31.1711 8.455 32.2711 8.455C32.9811 8.455 33.4461 8.19 33.6661 7.66C33.8461 7.24 33.9361 6.73 33.9361 6.13ZM35.8861 5.68C35.8861 7.53 35.5361 8.77 34.8361 9.4C34.2461 9.94 33.3911 10.21 32.2711 10.21C30.8411 10.21 29.8761 9.79 29.3761 8.95C28.9061 8.18 28.6711 7.09 28.6711 5.68C28.6711 4.36 28.9061 3.325 29.3761 2.575C29.8961 1.735 30.8411 1.315 32.2111 1.315C33.5911 1.315 34.5461 1.685 35.0761 2.425C35.6161 3.155 35.8861 4.24 35.8861 5.68ZM43.8506 10H42.3956L41.9456 8.98L39.5456 10.09C38.8756 10.09 38.2906 9.845 37.7906 9.355C37.3006 8.855 37.0556 8.13 37.0556 7.18V1.435H39.0056V6.76C39.0056 7.71 39.3856 8.185 40.1456 8.185L41.9006 7.24V1.435H43.8506V10ZM50.5892 1.465L50.0492 3.385C49.8992 3.325 49.7292 3.295 49.5392 3.295C49.0392 3.295 48.4242 3.51 47.6942 3.94V10H45.7442V1.435H47.1992L47.6492 2.185L49.7192 1.33C49.8192 1.32 49.9542 1.315 50.1242 1.315C50.2942 1.315 50.4492 1.365 50.5892 1.465Z" fill="white"/>
<path d="M32.8472 23.165C33.3172 23.165 33.6222 23.24 33.7622 23.39C33.9022 23.53 33.9722 23.835 33.9722 24.305C33.9722 24.765 33.8972 25.07 33.7472 25.22C33.6072 25.36 33.3022 25.43 32.8322 25.43C32.3722 25.43 32.0672 25.355 31.9172 25.205C31.7772 25.055 31.7072 24.75 31.7072 24.29C31.7072 23.83 31.7772 23.53 31.9172 23.39C32.0672 23.24 32.3772 23.165 32.8472 23.165ZM33.8072 35H31.8572V26.75H33.8072V35ZM39.6181 28.25H38.0281V35H36.0781V28.25H35.2681V26.765H36.0781V25.94C36.0781 25.33 36.2731 24.805 36.6631 24.365C37.0531 23.925 37.6181 23.705 38.3581 23.705H39.6181V25.355H38.7031C38.2531 25.355 38.0281 25.59 38.0281 26.06V26.765H39.6181V28.25ZM47.535 31.175H42.54C42.54 31.955 42.66 32.525 42.9 32.885C43.15 33.245 43.645 33.425 44.385 33.425C44.865 33.425 45.22 33.275 45.45 32.975C45.68 32.665 45.795 32.37 45.795 32.09H47.55C47.55 33.16 47.26 33.945 46.68 34.445C46.11 34.945 45.35 35.195 44.4 35.195C43.46 35.195 42.73 35.06 42.21 34.79C41.14 34.24 40.605 32.78 40.605 30.41C40.605 29 40.91 27.97 41.52 27.32C42.13 26.66 43.06 26.33 44.31 26.33C46.48 26.33 47.565 27.535 47.565 29.945C47.565 30.205 47.555 30.615 47.535 31.175ZM42.585 29.84H45.795C45.795 29.18 45.67 28.7 45.42 28.4C45.17 28.1 44.785 27.95 44.265 27.95C43.755 27.95 43.345 28.105 43.035 28.415C42.735 28.715 42.585 29.19 42.585 29.84Z" fill="#622363"/>
</svg>
