<svg width="100" height="50" viewBox="0 0 56 17" fill="none" xmlns="http://www.w3.org/2000/svg">
<path d="M9.44906 3.32L6.23906 9.62V14H4.16906V9.62L0.959063 3.32H3.22406L5.21906 7.625L7.18406 3.32H9.44906ZM15.228 10.13V9.35C15.228 8.61 15.118 8.045 14.898 7.655C14.688 7.265 14.243 7.07 13.563 7.07C12.463 7.07 11.913 7.81 11.913 9.29V10.07C11.913 11.66 12.463 12.455 13.563 12.455C14.273 12.455 14.738 12.19 14.958 11.66C15.138 11.24 15.228 10.73 15.228 10.13ZM17.178 9.68C17.178 11.53 16.828 12.77 16.128 13.4C15.538 13.94 14.683 14.21 13.563 14.21C12.133 14.21 11.168 13.79 10.668 12.95C10.198 12.18 9.96305 11.09 9.96305 9.68C9.96305 8.36 10.198 7.325 10.668 6.575C11.188 5.735 12.133 5.315 13.503 5.315C14.883 5.315 15.838 5.685 16.368 6.425C16.908 7.155 17.178 8.24 17.178 9.68ZM25.1426 14H23.6876L23.2376 12.98L20.8376 14.09C20.1676 14.09 19.5826 13.845 19.0826 13.355C18.5926 12.855 18.3476 12.13 18.3476 11.18V5.435H20.2976V10.76C20.2976 11.71 20.6776 12.185 21.4376 12.185L23.1926 11.24V5.435H25.1426V14ZM31.8812 5.465L31.3412 7.385C31.1912 7.325 31.0212 7.295 30.8312 7.295C30.3312 7.295 29.7162 7.51 28.9862 7.94V14H27.0362V5.435H28.4912L28.9412 6.185L31.0112 5.33C31.1112 5.32 31.2462 5.315 31.4162 5.315C31.5862 5.315 31.7412 5.365 31.8812 5.465Z" fill="white"/>
<path d="M35.2473 14L33.2973 14.015V2.72H35.2473V14ZM38.3321 2.165C38.8021 2.165 39.1071 2.24 39.2471 2.39C39.3871 2.53 39.4571 2.835 39.4571 3.305C39.4571 3.765 39.3821 4.07 39.2321 4.22C39.0921 4.36 38.7871 4.43 38.3171 4.43C37.8571 4.43 37.5521 4.355 37.4021 4.205C37.2621 4.055 37.1921 3.75 37.1921 3.29C37.1921 2.83 37.2621 2.53 37.4021 2.39C37.5521 2.24 37.8621 2.165 38.3321 2.165ZM39.2921 14H37.3421V5.75H39.2921V14ZM45.1029 7.25H43.5129V14H41.5629V7.25H40.7529V5.765H41.5629V4.94C41.5629 4.33 41.7579 3.805 42.1479 3.365C42.5379 2.925 43.1029 2.705 43.8429 2.705H45.1029V4.355H44.1879C43.7379 4.355 43.5129 4.59 43.5129 5.06V5.765H45.1029V7.25ZM53.0199 10.175H48.0249C48.0249 10.955 48.1449 11.525 48.3849 11.885C48.6349 12.245 49.1299 12.425 49.8699 12.425C50.3499 12.425 50.7049 12.275 50.9349 11.975C51.1649 11.665 51.2799 11.37 51.2799 11.09H53.0349C53.0349 12.16 52.7449 12.945 52.1649 13.445C51.5949 13.945 50.8349 14.195 49.8849 14.195C48.9449 14.195 48.2149 14.06 47.6949 13.79C46.6249 13.24 46.0899 11.78 46.0899 9.41C46.0899 8 46.3949 6.97 47.0049 6.32C47.6149 5.66 48.5449 5.33 49.7949 5.33C51.9649 5.33 53.0499 6.535 53.0499 8.945C53.0499 9.205 53.0399 9.615 53.0199 10.175ZM48.0699 8.84H51.2799C51.2799 8.18 51.1549 7.7 50.9049 7.4C50.6549 7.1 50.2699 6.95 49.7499 6.95C49.2399 6.95 48.8299 7.105 48.5199 7.415C48.2199 7.715 48.0699 8.19 48.0699 8.84Z" fill="#622363"/>
</svg>
