<svg width="78" height="75" viewBox="0 0 78 75" fill="none" xmlns="http://www.w3.org/2000/svg">
<g clip-path="url(#clip0)">
<rect width="78" height="75" rx="6" fill="url(#paint0_linear)"/>
<path d="M39.0034 21.6863L28.4061 42.2092L28.3286 56.517L21.5667 56.4804L21.6442 42.1726L11.2698 21.5361L18.6687 21.5761L25.1094 35.6742L31.6045 21.6462L39.0034 21.6863Z" fill="white"/>
<path d="M31.9766 56.2354L32.0883 45.848C32.1304 41.9283 32.9122 39.0945 34.4338 37.3468C35.9876 35.632 38.4795 34.7931 41.9093 34.8299L67.0938 35.1006L67.0206 41.9112L41.8361 41.6406C40.4641 41.6258 39.5135 41.9259 38.9842 42.541C38.4549 43.156 38.1815 44.2801 38.1639 45.9133L38.0523 56.3007L31.9766 56.2354Z" fill="#622363"/>
<path d="M44.9361 26.13V25.35C44.9361 24.61 44.8261 24.045 44.6061 23.655C44.3961 23.265 43.9511 23.07 43.2711 23.07C42.1711 23.07 41.6211 23.81 41.6211 25.29V26.07C41.6211 27.66 42.1711 28.455 43.2711 28.455C43.9811 28.455 44.4461 28.19 44.6661 27.66C44.8461 27.24 44.9361 26.73 44.9361 26.13ZM46.8861 25.68C46.8861 27.53 46.5361 28.77 45.8361 29.4C45.2461 29.94 44.3911 30.21 43.2711 30.21C41.8411 30.21 40.8761 29.79 40.3761 28.95C39.9061 28.18 39.6711 27.09 39.6711 25.68C39.6711 24.36 39.9061 23.325 40.3761 22.575C40.8961 21.735 41.8411 21.315 43.2111 21.315C44.5911 21.315 45.5461 21.685 46.0761 22.425C46.6161 23.155 46.8861 24.24 46.8861 25.68ZM54.8506 30H53.3956L52.9456 28.98L50.5456 30.09C49.8756 30.09 49.2906 29.845 48.7906 29.355C48.3006 28.855 48.0556 28.13 48.0556 27.18V21.435H50.0056V26.76C50.0056 27.71 50.3856 28.185 51.1456 28.185L52.9006 27.24V21.435H54.8506V30ZM61.5892 21.465L61.0492 23.385C60.8992 23.325 60.7292 23.295 60.5392 23.295C60.0392 23.295 59.4242 23.51 58.6942 23.94V30H56.7442V21.435H58.1992L58.6492 22.185L60.7192 21.33C60.8192 21.32 60.9542 21.315 61.1242 21.315C61.2942 21.315 61.4492 21.365 61.5892 21.465Z" fill="white"/>
<path d="M43.8472 43.165C44.3172 43.165 44.6222 43.24 44.7622 43.39C44.9022 43.53 44.9722 43.835 44.9722 44.305C44.9722 44.765 44.8972 45.07 44.7472 45.22C44.6072 45.36 44.3022 45.43 43.8322 45.43C43.3722 45.43 43.0672 45.355 42.9172 45.205C42.7772 45.055 42.7072 44.75 42.7072 44.29C42.7072 43.83 42.7772 43.53 42.9172 43.39C43.0672 43.24 43.3772 43.165 43.8472 43.165ZM44.8072 55H42.8572V46.75H44.8072V55ZM50.6181 48.25H49.0281V55H47.0781V48.25H46.2681V46.765H47.0781V45.94C47.0781 45.33 47.2731 44.805 47.6631 44.365C48.0531 43.925 48.6181 43.705 49.3581 43.705H50.6181V45.355H49.7031C49.2531 45.355 49.0281 45.59 49.0281 46.06V46.765H50.6181V48.25ZM58.535 51.175H53.54C53.54 51.955 53.66 52.525 53.9 52.885C54.15 53.245 54.645 53.425 55.385 53.425C55.865 53.425 56.22 53.275 56.45 52.975C56.68 52.665 56.795 52.37 56.795 52.09H58.55C58.55 53.16 58.26 53.945 57.68 54.445C57.11 54.945 56.35 55.195 55.4 55.195C54.46 55.195 53.73 55.06 53.21 54.79C52.14 54.24 51.605 52.78 51.605 50.41C51.605 49 51.91 47.97 52.52 47.32C53.13 46.66 54.06 46.33 55.31 46.33C57.48 46.33 58.565 47.535 58.565 49.945C58.565 50.205 58.555 50.615 58.535 51.175ZM53.585 49.84H56.795C56.795 49.18 56.67 48.7 56.42 48.4C56.17 48.1 55.785 47.95 55.265 47.95C54.755 47.95 54.345 48.105 54.035 48.415C53.735 48.715 53.585 49.19 53.585 49.84Z" fill="#622363"/>
</g>
<defs>
<linearGradient id="paint0_linear" x1="-9.9864e-07" y1="25.5" x2="39" y2="75" gradientUnits="userSpaceOnUse">
<stop stop-color="#F54EA4"/>
<stop offset="1" stop-color="#F279B7"/>
</linearGradient>
<clipPath id="clip0">
<rect width="78" height="75" rx="6" fill="white"/>
</clipPath>
</defs>
</svg>
